<svg width="268" height="24" viewBox="0 0 268 24" fill="none" xmlns="http://www.w3.org/2000/svg">
<path d="M15.3804 24L0 0H14.6571L15.7738 1.79048H3.52779L15.3804 20.2908L23.1214 8.29495L17.745 0.00413911H30.8624L25.5114 8.29495L28.6416 13.1247L38.0365 0.0578971L40.4223 0.033075L28.5486 16.6685L24.3185 10.1433L15.3804 24ZM21.3067 1.78635L24.327 6.44244L27.3302 1.78635H21.3067Z" fill="#F8F9FA"/>
<path d="M60.7397 23.373V19.9476C59.6941 22.6515 57.5294 23.9998 54.2454 23.9998C51.9113 23.9998 50.1073 23.2419 48.8188 21.7259C47.5302 20.21 46.8896 18.0527 46.8896 15.2686C46.8896 12.4772 47.5302 10.3272 48.8188 8.81128C50.1073 7.29534 51.9187 6.53737 54.2454 6.53737C55.8211 6.53737 57.1686 6.88721 58.2951 7.59416C59.4143 8.30112 60.2316 9.30689 60.7397 10.626V0.867177C60.7397 0.670396 60.828 0.568359 61.0048 0.568359H61.7411C61.9399 0.568359 62.043 0.670396 62.043 0.867177V23.3803C62.043 23.5771 61.9399 23.6792 61.7411 23.6792H61.0048C60.828 23.6719 60.7397 23.5771 60.7397 23.373ZM59.0904 20.8732C60.1875 19.5759 60.7397 17.7101 60.7397 15.2686C60.7397 12.8271 60.1875 10.9613 59.0904 9.664C57.9932 8.36671 56.4175 7.71805 54.3779 7.71805C52.3605 7.71805 50.8289 8.35214 49.7834 9.62757C48.7378 10.903 48.215 12.7833 48.215 15.2613C48.215 17.7466 48.7378 19.6269 49.7834 20.8951C50.8289 22.1705 52.3605 22.8046 54.3779 22.8046C56.4175 22.8191 57.9859 22.1705 59.0904 20.8732Z" fill="#F8F9FA"/>
<path d="M80.1198 12.266V23.3732C80.1198 23.57 80.0168 23.672 79.818 23.672H79.1553C78.9565 23.672 78.8534 23.57 78.8534 23.3732V20.3049C77.8078 22.7246 75.5768 23.9344 72.1603 23.9344C70.3416 23.9344 68.9426 23.5117 67.9633 22.6662C66.984 21.8208 66.498 20.6839 66.498 19.2554C66.498 18.4901 66.6232 17.8196 66.8809 17.2438C67.1386 16.6754 67.551 16.1943 68.1327 15.8081C68.707 15.4218 69.3181 15.1084 69.9661 14.8679C70.6067 14.6274 71.4534 14.4379 72.499 14.3067C73.5446 14.1755 74.5165 14.0808 75.4295 14.0298C76.3426 13.9714 77.4838 13.935 78.8607 13.9131V12.3316C78.8607 10.7282 78.4852 9.55482 77.7268 8.81872C76.9684 8.08261 75.7093 7.71092 73.9275 7.71092C71.9541 7.71092 70.0986 8.09719 68.3683 8.86245C68.2137 8.90617 68.0885 8.85517 68.0001 8.69483L67.8013 8.06804C67.7351 7.91499 67.7866 7.80568 67.9707 7.74008C69.8556 6.92381 71.8658 6.52295 74.0011 6.52295C76.1364 6.52295 77.6827 6.99668 78.6619 7.93686C79.6339 8.89161 80.1198 10.3347 80.1198 12.266ZM78.8534 17.2803V14.9699C74.9436 15.123 72.337 15.3781 71.0264 15.7279C68.8469 16.3183 67.7645 17.4844 67.7645 19.2189C67.7645 20.2976 68.1548 21.1649 68.9279 21.8208C69.7084 22.4767 70.8276 22.812 72.2928 22.812C74.3766 22.812 75.9965 22.2873 77.1378 21.2451C78.2791 20.2101 78.8534 18.8837 78.8534 17.2803Z" fill="#F8F9FA"/>
<path d="M92.6365 8.11191H87.7105V18.8911C87.7105 20.3633 87.9314 21.3618 88.3732 21.8938C88.815 22.4186 89.6397 22.6882 90.8399 22.6882C91.2596 22.6882 91.8633 22.6081 92.6365 22.455C92.8132 22.4332 92.9236 22.5133 92.9678 22.6882L93.1372 23.2495C93.2034 23.4025 93.1372 23.5045 92.9384 23.5482C92.3198 23.7669 91.5762 23.8762 90.7073 23.8762C89.1537 23.8762 88.0492 23.5118 87.3939 22.7757C86.7386 22.0396 86.4146 20.7788 86.4146 19.0004V8.11191H83.6535C83.4546 8.11191 83.3516 8.00988 83.3516 7.81309V7.22275C83.3516 7.02597 83.4546 6.92394 83.6535 6.92394H86.4514V2.31054C86.4514 2.11376 86.5398 2.01172 86.7165 2.01172H87.416C87.6148 2.01172 87.7179 2.11376 87.7179 2.31054V6.92394H92.6438C92.8426 6.92394 92.9457 7.02597 92.9457 7.22275V7.82039C92.9384 8.01717 92.8426 8.11191 92.6365 8.11191Z" fill="#F8F9FA"/>
<path d="M108.924 12.266V23.3732C108.924 23.57 108.82 23.672 108.622 23.672H107.959C107.76 23.672 107.657 23.57 107.657 23.3732V20.3049C106.612 22.7246 104.381 23.9344 100.964 23.9344C99.1453 23.9344 97.7463 23.5117 96.767 22.6662C95.7877 21.8208 95.3018 20.6839 95.3018 19.2554C95.3018 18.4901 95.4269 17.8196 95.6846 17.2438C95.9424 16.6754 96.3547 16.1943 96.9364 15.8081C97.5107 15.4218 98.1218 15.1084 98.7698 14.8679C99.4104 14.6274 100.257 14.4379 101.303 14.3067C102.348 14.1755 103.32 14.0808 104.233 14.0298C105.146 13.9714 106.288 13.935 107.664 13.9131V12.3316C107.664 10.7282 107.289 9.55482 106.531 8.81872C105.772 8.08261 104.513 7.71092 102.731 7.71092C100.758 7.71092 98.9023 8.09719 97.172 8.86245C97.0174 8.90617 96.8922 8.85517 96.8038 8.69483L96.605 8.06804C96.5388 7.91499 96.5903 7.80568 96.7744 7.74008C98.6593 6.92381 100.669 6.52295 102.805 6.52295C104.933 6.52295 106.486 6.99668 107.466 7.93686C108.438 8.89161 108.924 10.3347 108.924 12.266ZM107.657 17.2803V14.9699C103.747 15.123 101.141 15.3781 99.8301 15.7279C97.6506 16.3183 96.5682 17.4844 96.5682 19.2189C96.5682 20.2976 96.9585 21.1649 97.7316 21.8208C98.5121 22.4767 99.6313 22.812 101.097 22.812C103.18 22.812 104.8 22.2873 105.941 21.2451C107.09 20.2101 107.657 18.8837 107.657 17.2803Z" fill="#F8F9FA"/>
<path d="M127.406 23.672C126.404 23.672 125.94 23.3076 125.94 22.2872V20.4433H125.903C125.27 22.0613 123.371 23.9052 120.344 23.9052C115.912 23.9052 112.849 20.6109 112.849 15.4655C112.849 10.6189 115.845 7.22258 120.374 7.22258C123.341 7.22258 125.071 8.8697 125.771 10.4512H125.808C125.808 10.4512 125.771 9.7953 125.771 9.3653V2.20831H123.908C123.643 2.20831 123.474 2.07714 123.474 1.81477V0.393567C123.474 0.131193 123.643 0 123.908 0H128.039C128.304 0 128.436 0.131193 128.436 0.393567V21.4564H130.299C130.564 21.4564 130.697 21.5876 130.697 21.8499V23.2638C130.697 23.5262 130.528 23.6574 130.299 23.6574H127.406V23.672ZM125.808 15.5311C125.808 11.6756 123.474 9.53294 120.749 9.53294C117.885 9.53294 115.588 11.7777 115.588 15.5019C115.588 19.1606 117.752 21.6021 120.749 21.6021C123.614 21.5949 125.808 19.2553 125.808 15.5311Z" fill="#F8F9FA"/>
<path d="M133.672 23.6719C133.407 23.6719 133.237 23.5407 133.237 23.2784V21.8645C133.237 21.6021 133.407 21.4709 133.672 21.4709H135.505V9.67137H133.672C133.407 9.67137 133.237 9.54017 133.237 9.2778V7.86389C133.237 7.60152 133.407 7.47032 133.672 7.47032H137.567C137.832 7.47032 138.001 7.60152 138.001 7.86389V11.9817H138.104C138.104 11.9817 139.201 7.39746 145.232 7.39746C145.497 7.39746 145.666 7.56509 145.666 7.82746V9.57662C145.666 9.83899 145.497 10.0066 145.232 10.0066H144.532C140.505 10.0066 138.274 13.1041 138.274 15.9392V21.4782H140.041C140.306 21.4782 140.475 21.6094 140.475 21.8718V23.2857C140.475 23.548 140.306 23.6792 140.041 23.6792H133.672V23.6719Z" fill="#F8F9FA"/>
<path d="M147.691 23.6722C147.426 23.6722 147.257 23.541 147.257 23.2786V21.8647C147.257 21.6023 147.426 21.4711 147.691 21.4711H149.525V9.67159H147.691C147.426 9.67159 147.257 9.5404 147.257 9.27802V7.86412C147.257 7.60174 147.426 7.47055 147.691 7.47055H151.888C152.153 7.47055 152.286 7.60174 152.286 7.86412V21.4784H154.053C154.318 21.4784 154.487 21.6096 154.487 21.872V23.2859C154.487 23.5483 154.318 23.6795 154.053 23.6795H147.691V23.6722ZM150.85 5.70683C149.819 5.70683 148.987 4.9124 148.987 3.89206C148.987 2.87171 149.819 2.01172 150.85 2.01172C151.881 2.01172 152.713 2.87171 152.713 3.89206C152.72 4.9124 151.888 5.70683 150.85 5.70683Z" fill="#F8F9FA"/>
<path d="M163.772 23.6718C163.308 23.6718 163.205 23.5406 163.036 23.0814L157.742 9.66391H155.879C155.643 9.66391 155.481 9.53272 155.481 9.27034V7.85644C155.481 7.59406 155.614 7.46289 155.879 7.46289H162.071C162.337 7.46289 162.469 7.59406 162.469 7.85644V9.27034C162.469 9.53272 162.337 9.66391 162.071 9.66391H160.606L164.869 20.7711H164.936L169.265 9.66391H167.763C167.498 9.66391 167.366 9.53272 167.366 9.27034V7.85644C167.366 7.59406 167.498 7.46289 167.763 7.46289H173.956C174.221 7.46289 174.39 7.59406 174.39 7.85644V9.27034C174.39 9.53272 174.221 9.66391 173.956 9.66391H172.122L166.762 23.0814C166.592 23.5406 166.46 23.6718 165.996 23.6718H163.772Z" fill="#F8F9FA"/>
<path d="M178.094 15.8956C178.263 19.751 180.987 21.5949 183.623 21.5949C186.488 21.5949 188.454 19.8166 188.917 19.0587C189.087 18.8254 189.286 18.7963 189.514 18.9566L190.412 19.8458C190.648 20.0426 190.677 20.2393 190.545 20.4361C190.11 21.1649 187.85 23.898 183.454 23.898C178.955 23.898 175.259 20.7641 175.259 15.4947C175.259 10.1525 179.124 7.22266 183.115 7.22266C187.879 7.22266 190.64 10.3566 190.545 15.4656C190.545 15.7279 190.375 15.8956 190.081 15.8956H178.094ZM187.783 13.8841C187.651 11.2166 186.053 9.40183 183.189 9.40183C180.892 9.40183 178.557 10.721 178.16 13.8841H187.783Z" fill="#F8F9FA"/>
<path d="M207.738 23.6721C206.773 23.6721 206.309 23.3077 206.309 22.2873V13.6144C206.309 11.1437 205.109 9.59131 202.642 9.59131C199.277 9.59131 198.246 12.3608 198.21 12.39V21.4564H199.977C200.242 21.4564 200.411 21.5876 200.411 21.85V23.2639C200.411 23.5263 200.242 23.6575 199.977 23.6575H193.615C193.35 23.6575 193.181 23.5263 193.181 23.2639V21.85C193.181 21.5876 193.35 21.4564 193.615 21.4564H195.448V9.6569H193.615C193.35 9.6569 193.181 9.52573 193.181 9.26336V7.84945C193.181 7.58708 193.35 7.45588 193.615 7.45588H197.51C197.775 7.45588 197.945 7.58708 197.945 7.84945L197.878 10.0942H197.981C198.379 9.43826 199.749 7.22266 203.342 7.22266C206.935 7.22266 209.004 9.49656 209.033 12.9584V21.4637H210.896C211.161 21.4637 211.331 21.5949 211.331 21.8573V23.2712C211.331 23.5336 211.161 23.6648 210.896 23.6648H207.738V23.6721Z" fill="#F8F9FA"/>
<path d="M228.111 12.8928V23.3732C228.111 23.57 228.008 23.672 227.809 23.672H227.11C226.911 23.672 226.808 23.57 226.808 23.3732V12.3608C226.808 9.2852 225.343 7.74739 222.412 7.74739C220.77 7.74739 219.415 8.25027 218.348 9.24875C217.28 10.2472 216.75 11.53 216.75 13.0896V23.3732C216.75 23.57 216.647 23.672 216.448 23.672H215.719C215.52 23.672 215.417 23.57 215.417 23.3732V7.22264C215.417 7.02586 215.52 6.92382 215.719 6.92382H216.448C216.647 6.92382 216.75 7.02586 216.75 7.22264V10.0577C217.037 9.15401 217.685 8.34502 218.701 7.6162C219.71 6.88739 221.013 6.53027 222.611 6.53027C225.519 6.53027 227.25 7.74739 227.809 10.1889C228.229 9.15401 228.95 8.28671 229.974 7.58704C230.997 6.88738 232.33 6.53027 233.972 6.53027C235.769 6.53027 237.138 7.04043 238.066 8.06077C239.001 9.08111 239.465 10.495 239.465 12.2952V23.3732C239.465 23.57 239.362 23.672 239.163 23.672H238.464C238.265 23.672 238.162 23.57 238.162 23.3732V12.3972C238.162 9.29977 236.697 7.74739 233.766 7.74739C232.124 7.74739 230.769 8.22841 229.701 9.18316C228.649 10.1452 228.111 11.3769 228.111 12.8928Z" fill="#F8F9FA"/>
<path d="M256.717 23.6718H255.678C255.502 23.6718 255.34 23.6135 255.207 23.4896L246.467 15.1665V23.373C246.467 23.5698 246.364 23.6718 246.165 23.6718H245.429C245.23 23.6718 245.127 23.5698 245.127 23.373V0.859853C245.127 0.663072 245.23 0.561035 245.429 0.561035H246.165C246.364 0.561035 246.467 0.663072 246.467 0.859853V13.4174L254.817 7.07666C254.972 6.97463 255.111 6.92359 255.244 6.92359H256.371C256.481 6.92359 256.547 6.96005 256.569 7.03293C256.591 7.10581 256.547 7.18597 256.437 7.26614L247.203 14.2264L256.849 23.3074C256.938 23.3949 256.967 23.475 256.93 23.5552C256.901 23.6354 256.827 23.6718 256.717 23.6718Z" fill="#F8F9FA"/>
<path d="M267.474 8.11191H262.548V18.8911C262.548 20.3633 262.769 21.3618 263.211 21.8938C263.653 22.4186 264.478 22.6882 265.678 22.6882C266.097 22.6882 266.701 22.6081 267.474 22.455C267.651 22.4332 267.762 22.5133 267.806 22.6882L267.975 23.2495C268.041 23.4025 267.975 23.5045 267.776 23.5482C267.158 23.7669 266.414 23.8762 265.545 23.8762C263.992 23.8762 262.887 23.5118 262.232 22.7757C261.577 22.0396 261.253 20.7788 261.253 19.0004V8.11191H258.491C258.293 8.11191 258.189 8.00988 258.189 7.81309V7.22275C258.189 7.02597 258.293 6.92394 258.491 6.92394H261.289V2.31054C261.289 2.11376 261.378 2.01172 261.554 2.01172H262.254C262.453 2.01172 262.556 2.11376 262.556 2.31054V6.92394H267.482C267.681 6.92394 267.784 7.02597 267.784 7.22275V7.82039C267.776 8.01717 267.673 8.11191 267.474 8.11191Z" fill="#F8F9FA"/>
</svg>
