<svg width="268" height="24" viewBox="0 0 268 24" fill="none" xmlns="http://www.w3.org/2000/svg">
<path d="M15.3804 24L0 0H14.6571L15.7738 1.79048H3.52779L15.3804 20.2908L23.1214 8.29495L17.745 0.00413911H30.8624L25.5114 8.29495L28.6416 13.1247L38.0365 0.0578971L40.4223 0.033075L28.5486 16.6685L24.3185 10.1433L15.3804 24ZM21.3067 1.78635L24.327 6.44244L27.3302 1.78635H21.3067Z" fill="black"/>
<path d="M60.7397 23.3732V19.9478C59.6941 22.6517 57.5294 24 54.2454 24C51.9113 24 50.1073 23.242 48.8188 21.7261C47.5302 20.2101 46.8896 18.0529 46.8896 15.2688C46.8896 12.4774 47.5302 10.3274 48.8188 8.81144C50.1073 7.2955 51.9187 6.53754 54.2454 6.53754C55.8211 6.53754 57.1686 6.88738 58.2951 7.59433C59.4143 8.30128 60.2316 9.30705 60.7397 10.6262V0.867341C60.7397 0.67056 60.828 0.568523 61.0048 0.568523H61.7411C61.9399 0.568523 62.043 0.67056 62.043 0.867341V23.3805C62.043 23.5773 61.9399 23.6793 61.7411 23.6793H61.0048C60.828 23.672 60.7397 23.5773 60.7397 23.3732ZM59.0904 20.8734C60.1875 19.5761 60.7397 17.7103 60.7397 15.2688C60.7397 12.8272 60.1875 10.9615 59.0904 9.66417C57.9932 8.36687 56.4175 7.71821 54.3779 7.71821C52.3605 7.71821 50.8289 8.3523 49.7834 9.62773C48.7378 10.9032 48.215 12.7835 48.215 15.2615C48.215 17.7467 48.7378 19.6271 49.7834 20.8952C50.8289 22.1707 52.3605 22.8047 54.3779 22.8047C56.4175 22.8193 57.9859 22.1707 59.0904 20.8734Z" fill="black"/>
<path d="M80.1198 12.266V23.3731C80.1198 23.5699 80.0168 23.672 79.818 23.672H79.1553C78.9565 23.672 78.8534 23.5699 78.8534 23.3731V20.3048C77.8078 22.7245 75.5768 23.9343 72.1603 23.9343C70.3416 23.9343 68.9426 23.5116 67.9633 22.6662C66.984 21.8208 66.498 20.6838 66.498 19.2553C66.498 18.4901 66.6232 17.8196 66.8809 17.2438C67.1386 16.6753 67.551 16.1943 68.1327 15.808C68.707 15.4217 69.3181 15.1084 69.9661 14.8679C70.6067 14.6273 71.4534 14.4378 72.499 14.3067C73.5446 14.1755 74.5165 14.0807 75.4295 14.0297C76.3426 13.9714 77.4838 13.935 78.8607 13.9131V12.3316C78.8607 10.7282 78.4852 9.55477 77.7268 8.81866C76.9684 8.08256 75.7093 7.71087 73.9275 7.71087C71.9541 7.71087 70.0986 8.09713 68.3683 8.86239C68.2137 8.90612 68.0885 8.85512 68.0001 8.69478L67.8013 8.06798C67.7351 7.91493 67.7866 7.80562 67.9707 7.74003C69.8556 6.92375 71.8658 6.5229 74.0011 6.5229C76.1364 6.5229 77.6827 6.99663 78.6619 7.9368C79.6339 8.89155 80.1198 10.3346 80.1198 12.266ZM78.8534 17.2802V14.9699C74.9436 15.1229 72.337 15.378 71.0264 15.7279C68.8469 16.3182 67.7645 17.4843 67.7645 19.2189C67.7645 20.2975 68.1548 21.1648 68.9279 21.8208C69.7084 22.4767 70.8276 22.812 72.2928 22.812C74.3766 22.812 75.9965 22.2872 77.1378 21.245C78.2791 20.2101 78.8534 18.8836 78.8534 17.2802Z" fill="black"/>
<path d="M92.6365 8.11173H87.7105V18.8909C87.7105 20.3631 87.9314 21.3616 88.3732 21.8937C88.815 22.4184 89.6397 22.6881 90.8399 22.6881C91.2596 22.6881 91.8633 22.6079 92.6365 22.4548C92.8132 22.433 92.9236 22.5131 92.9678 22.6881L93.1372 23.2493C93.2034 23.4023 93.1372 23.5043 92.9384 23.5481C92.3198 23.7667 91.5762 23.876 90.7073 23.876C89.1537 23.876 88.0492 23.5116 87.3939 22.7755C86.7386 22.0394 86.4146 20.7786 86.4146 19.0003V8.11173H83.6535C83.4546 8.11173 83.3516 8.00969 83.3516 7.81291V7.22257C83.3516 7.02579 83.4546 6.92375 83.6535 6.92375H86.4514V2.31035C86.4514 2.11357 86.5398 2.01153 86.7165 2.01153H87.416C87.6148 2.01153 87.7179 2.11357 87.7179 2.31035V6.92375H92.6438C92.8426 6.92375 92.9457 7.02579 92.9457 7.22257V7.8202C92.9384 8.01698 92.8426 8.11173 92.6365 8.11173Z" fill="black"/>
<path d="M108.924 12.266V23.3731C108.924 23.5699 108.82 23.672 108.622 23.672H107.959C107.76 23.672 107.657 23.5699 107.657 23.3731V20.3048C106.612 22.7245 104.381 23.9343 100.964 23.9343C99.1453 23.9343 97.7463 23.5116 96.767 22.6662C95.7877 21.8208 95.3018 20.6838 95.3018 19.2553C95.3018 18.4901 95.4269 17.8196 95.6846 17.2438C95.9424 16.6753 96.3547 16.1943 96.9364 15.808C97.5107 15.4217 98.1218 15.1084 98.7698 14.8679C99.4104 14.6273 100.257 14.4378 101.303 14.3067C102.348 14.1755 103.32 14.0807 104.233 14.0297C105.146 13.9714 106.288 13.935 107.664 13.9131V12.3316C107.664 10.7282 107.289 9.55477 106.531 8.81866C105.772 8.08256 104.513 7.71087 102.731 7.71087C100.758 7.71087 98.9023 8.09713 97.172 8.86239C97.0174 8.90612 96.8922 8.85512 96.8038 8.69478L96.605 8.06798C96.5388 7.91493 96.5903 7.80562 96.7744 7.74003C98.6593 6.92375 100.669 6.5229 102.805 6.5229C104.933 6.5229 106.486 6.99663 107.466 7.9368C108.438 8.89155 108.924 10.3346 108.924 12.266ZM107.657 17.2802V14.9699C103.747 15.1229 101.141 15.378 99.8301 15.7279C97.6506 16.3182 96.5682 17.4843 96.5682 19.2189C96.5682 20.2975 96.9585 21.1648 97.7316 21.8208C98.5121 22.4767 99.6313 22.812 101.097 22.812C103.18 22.812 104.8 22.2872 105.941 21.245C107.09 20.2101 107.657 18.8836 107.657 17.2802Z" fill="black"/>
<path d="M127.406 23.672C126.404 23.672 125.94 23.3076 125.94 22.2872V20.4433H125.903C125.27 22.0613 123.371 23.9052 120.344 23.9052C115.912 23.9052 112.849 20.6109 112.849 15.4655C112.849 10.6189 115.845 7.22258 120.374 7.22258C123.341 7.22258 125.071 8.8697 125.771 10.4512H125.808C125.808 10.4512 125.771 9.7953 125.771 9.3653V2.20831H123.908C123.643 2.20831 123.474 2.07714 123.474 1.81477V0.393567C123.474 0.131193 123.643 0 123.908 0H128.039C128.304 0 128.436 0.131193 128.436 0.393567V21.4564H130.299C130.564 21.4564 130.697 21.5876 130.697 21.8499V23.2638C130.697 23.5262 130.528 23.6574 130.299 23.6574H127.406V23.672ZM125.808 15.5311C125.808 11.6756 123.474 9.53294 120.749 9.53294C117.885 9.53294 115.588 11.7777 115.588 15.5019C115.588 19.1606 117.752 21.6021 120.749 21.6021C123.614 21.5949 125.808 19.2553 125.808 15.5311Z" fill="black"/>
<path d="M133.672 23.672C133.407 23.672 133.237 23.5408 133.237 23.2784V21.8645C133.237 21.6021 133.407 21.471 133.672 21.471H135.505V9.67142H133.672C133.407 9.67142 133.237 9.54023 133.237 9.27786V7.86395C133.237 7.60158 133.407 7.47038 133.672 7.47038H137.567C137.832 7.47038 138.001 7.60158 138.001 7.86395V11.9818H138.104C138.104 11.9818 139.201 7.39752 145.232 7.39752C145.497 7.39752 145.666 7.56514 145.666 7.82752V9.57667C145.666 9.83905 145.497 10.0067 145.232 10.0067H144.532C140.505 10.0067 138.274 13.1042 138.274 15.9393V21.4782H140.041C140.306 21.4782 140.475 21.6094 140.475 21.8718V23.2857C140.475 23.5481 140.306 23.6793 140.041 23.6793H133.672V23.672Z" fill="black"/>
<path d="M147.691 23.672C147.426 23.672 147.257 23.5408 147.257 23.2784V21.8645C147.257 21.6021 147.426 21.471 147.691 21.471H149.525V9.6714H147.691C147.426 9.6714 147.257 9.54021 147.257 9.27784V7.86393C147.257 7.60156 147.426 7.47036 147.691 7.47036H151.888C152.153 7.47036 152.286 7.60156 152.286 7.86393V21.4782H154.053C154.318 21.4782 154.487 21.6094 154.487 21.8718V23.2857C154.487 23.5481 154.318 23.6793 154.053 23.6793H147.691V23.672ZM150.85 5.70664C149.819 5.70664 148.987 4.91221 148.987 3.89187C148.987 2.87153 149.819 2.01153 150.85 2.01153C151.881 2.01153 152.713 2.87153 152.713 3.89187C152.72 4.91221 151.888 5.70664 150.85 5.70664Z" fill="black"/>
<path d="M163.772 23.672C163.308 23.672 163.205 23.5408 163.036 23.0816L157.742 9.66412H155.879C155.643 9.66412 155.481 9.53293 155.481 9.27056V7.85665C155.481 7.59428 155.614 7.4631 155.879 7.4631H162.071C162.337 7.4631 162.469 7.59428 162.469 7.85665V9.27056C162.469 9.53293 162.337 9.66412 162.071 9.66412H160.606L164.869 20.7713H164.936L169.265 9.66412H167.763C167.498 9.66412 167.366 9.53293 167.366 9.27056V7.85665C167.366 7.59428 167.498 7.4631 167.763 7.4631H173.956C174.221 7.4631 174.39 7.59428 174.39 7.85665V9.27056C174.39 9.53293 174.221 9.66412 173.956 9.66412H172.122L166.762 23.0816C166.592 23.5408 166.46 23.672 165.996 23.672H163.772Z" fill="black"/>
<path d="M178.094 15.8955C178.263 19.751 180.987 21.5949 183.623 21.5949C186.488 21.5949 188.454 19.8166 188.917 19.0586C189.087 18.8254 189.286 18.7962 189.514 18.9566L190.412 19.8457C190.648 20.0425 190.677 20.2393 190.545 20.436C190.11 21.1649 187.85 23.8979 183.454 23.8979C178.955 23.8979 175.259 20.764 175.259 15.4947C175.259 10.1524 179.124 7.2226 183.115 7.2226C187.879 7.2226 190.64 10.3565 190.545 15.4655C190.545 15.7279 190.375 15.8955 190.081 15.8955H178.094ZM187.783 13.884C187.651 11.2165 186.053 9.40177 183.189 9.40177C180.892 9.40177 178.557 10.7209 178.16 13.884H187.783Z" fill="black"/>
<path d="M207.738 23.672C206.773 23.672 206.309 23.3076 206.309 22.2873V13.6143C206.309 11.1436 205.109 9.59125 202.642 9.59125C199.277 9.59125 198.246 12.3608 198.21 12.3899V21.4564H199.977C200.242 21.4564 200.411 21.5876 200.411 21.85V23.2639C200.411 23.5262 200.242 23.6574 199.977 23.6574H193.615C193.35 23.6574 193.181 23.5262 193.181 23.2639V21.85C193.181 21.5876 193.35 21.4564 193.615 21.4564H195.448V9.65684H193.615C193.35 9.65684 193.181 9.52567 193.181 9.2633V7.84939C193.181 7.58702 193.35 7.45582 193.615 7.45582H197.51C197.775 7.45582 197.945 7.58702 197.945 7.84939L197.878 10.0941H197.981C198.379 9.4382 199.749 7.2226 203.342 7.2226C206.935 7.2226 209.004 9.4965 209.033 12.9584V21.4637H210.896C211.161 21.4637 211.331 21.5949 211.331 21.8573V23.2712C211.331 23.5335 211.161 23.6647 210.896 23.6647H207.738V23.672Z" fill="black"/>
<path d="M228.111 12.8927V23.3731C228.111 23.5699 228.008 23.6719 227.809 23.6719H227.11C226.911 23.6719 226.808 23.5699 226.808 23.3731V12.3607C226.808 9.2851 225.343 7.74729 222.412 7.74729C220.77 7.74729 219.415 8.25017 218.348 9.24865C217.28 10.2471 216.75 11.5299 216.75 13.0895V23.3731C216.75 23.5699 216.647 23.6719 216.448 23.6719H215.719C215.52 23.6719 215.417 23.5699 215.417 23.3731V7.22254C215.417 7.02576 215.52 6.92372 215.719 6.92372H216.448C216.647 6.92372 216.75 7.02576 216.75 7.22254V10.0576C217.037 9.15391 217.685 8.34492 218.701 7.6161C219.71 6.88729 221.013 6.53017 222.611 6.53017C225.519 6.53017 227.25 7.74729 227.809 10.1888C228.229 9.15391 228.95 8.28661 229.974 7.58695C230.997 6.88728 232.33 6.53017 233.972 6.53017C235.769 6.53017 237.138 7.04033 238.066 8.06067C239.001 9.08102 239.465 10.4949 239.465 12.2951V23.3731C239.465 23.5699 239.362 23.6719 239.163 23.6719H238.464C238.265 23.6719 238.162 23.5699 238.162 23.3731V12.3971C238.162 9.29967 236.697 7.74729 233.766 7.74729C232.124 7.74729 230.769 8.22831 229.701 9.18306C228.649 10.1451 228.111 11.3768 228.111 12.8927Z" fill="black"/>
<path d="M256.717 23.6719H255.678C255.502 23.6719 255.34 23.6136 255.207 23.4897L246.467 15.1666V23.3731C246.467 23.5699 246.364 23.6719 246.165 23.6719H245.429C245.23 23.6719 245.127 23.5699 245.127 23.3731V0.859988C245.127 0.663208 245.23 0.561171 245.429 0.561171H246.165C246.364 0.561171 246.467 0.663208 246.467 0.859988V13.4175L254.817 7.0768C254.972 6.97476 255.111 6.92373 255.244 6.92373H256.371C256.481 6.92373 256.547 6.96019 256.569 7.03307C256.591 7.10595 256.547 7.1861 256.437 7.26627L247.203 14.2265L256.849 23.3075C256.938 23.395 256.967 23.4752 256.93 23.5553C256.901 23.6355 256.827 23.6719 256.717 23.6719Z" fill="black"/>
<path d="M267.474 8.11173H262.548V18.8909C262.548 20.3631 262.769 21.3616 263.211 21.8937C263.653 22.4184 264.478 22.6881 265.678 22.6881C266.097 22.6881 266.701 22.6079 267.474 22.4548C267.651 22.433 267.762 22.5131 267.806 22.6881L267.975 23.2493C268.041 23.4023 267.975 23.5043 267.776 23.5481C267.158 23.7667 266.414 23.876 265.545 23.876C263.992 23.876 262.887 23.5116 262.232 22.7755C261.577 22.0394 261.253 20.7786 261.253 19.0003V8.11173H258.491C258.293 8.11173 258.189 8.00969 258.189 7.81291V7.22257C258.189 7.02579 258.293 6.92375 258.491 6.92375H261.289V2.31035C261.289 2.11357 261.378 2.01153 261.554 2.01153H262.254C262.453 2.01153 262.556 2.11357 262.556 2.31035V6.92375H267.482C267.681 6.92375 267.784 7.02579 267.784 7.22257V7.8202C267.776 8.01698 267.673 8.11173 267.474 8.11173Z" fill="black"/>
</svg>
